<mxfile host="app.diagrams.net" modified="2023-11-07T20:43:13.095Z" agent="Mozilla/5.0 (Windows NT 10.0; Win64; x64) AppleWebKit/537.36 (KHTML, like Gecko) Chrome/118.0.0.0 Safari/537.36" etag="Fi3OTKaDt1RS5K1Fyug1" version="22.0.0" type="device">
  <diagram name="Страница — 1" id="TMHmkQ2Sji_6Kycjav-P">
    <mxGraphModel dx="1050" dy="572" grid="1" gridSize="10" guides="1" tooltips="1" connect="1" arrows="1" fold="1" page="1" pageScale="1" pageWidth="827" pageHeight="1169" math="0" shadow="0">
      <root>
        <mxCell id="0" />
        <mxCell id="1" parent="0" />
        <mxCell id="7KUsN6LbJQAXhWN3x1fu-8" value="" style="edgeStyle=orthogonalEdgeStyle;rounded=0;orthogonalLoop=1;jettySize=auto;html=1;" edge="1" parent="1" source="7KUsN6LbJQAXhWN3x1fu-1" target="7KUsN6LbJQAXhWN3x1fu-2">
          <mxGeometry relative="1" as="geometry" />
        </mxCell>
        <mxCell id="7KUsN6LbJQAXhWN3x1fu-1" value="Start" style="ellipse;whiteSpace=wrap;html=1;" vertex="1" parent="1">
          <mxGeometry x="270" y="40" width="120" height="80" as="geometry" />
        </mxCell>
        <mxCell id="7KUsN6LbJQAXhWN3x1fu-9" value="" style="edgeStyle=orthogonalEdgeStyle;rounded=0;orthogonalLoop=1;jettySize=auto;html=1;" edge="1" parent="1" source="7KUsN6LbJQAXhWN3x1fu-2" target="7KUsN6LbJQAXhWN3x1fu-3">
          <mxGeometry relative="1" as="geometry" />
        </mxCell>
        <mxCell id="7KUsN6LbJQAXhWN3x1fu-2" value="input data" style="shape=parallelogram;perimeter=parallelogramPerimeter;whiteSpace=wrap;html=1;fixedSize=1;" vertex="1" parent="1">
          <mxGeometry x="270" y="150" width="120" height="60" as="geometry" />
        </mxCell>
        <mxCell id="7KUsN6LbJQAXhWN3x1fu-3" value="3 or less than a character?" style="rhombus;whiteSpace=wrap;html=1;" vertex="1" parent="1">
          <mxGeometry x="240" y="270" width="180" height="130" as="geometry" />
        </mxCell>
        <mxCell id="7KUsN6LbJQAXhWN3x1fu-4" value="True&lt;br&gt;" style="text;html=1;strokeColor=none;fillColor=none;align=center;verticalAlign=middle;whiteSpace=wrap;rounded=0;" vertex="1" parent="1">
          <mxGeometry x="430" y="270" width="60" height="30" as="geometry" />
        </mxCell>
        <mxCell id="7KUsN6LbJQAXhWN3x1fu-5" value="False" style="text;html=1;strokeColor=none;fillColor=none;align=center;verticalAlign=middle;whiteSpace=wrap;rounded=0;" vertex="1" parent="1">
          <mxGeometry x="170" y="270" width="60" height="30" as="geometry" />
        </mxCell>
        <mxCell id="7KUsN6LbJQAXhWN3x1fu-6" value="writing to an empty data array" style="rounded=0;whiteSpace=wrap;html=1;" vertex="1" parent="1">
          <mxGeometry x="520" y="305" width="120" height="60" as="geometry" />
        </mxCell>
        <mxCell id="7KUsN6LbJQAXhWN3x1fu-7" value="" style="endArrow=classic;html=1;rounded=0;exitX=1;exitY=0.5;exitDx=0;exitDy=0;entryX=0;entryY=0.5;entryDx=0;entryDy=0;" edge="1" parent="1" source="7KUsN6LbJQAXhWN3x1fu-3" target="7KUsN6LbJQAXhWN3x1fu-6">
          <mxGeometry width="50" height="50" relative="1" as="geometry">
            <mxPoint x="390" y="320" as="sourcePoint" />
            <mxPoint x="440" y="270" as="targetPoint" />
          </mxGeometry>
        </mxCell>
        <mxCell id="7KUsN6LbJQAXhWN3x1fu-11" value="" style="endArrow=classic;html=1;rounded=0;exitX=0;exitY=0.5;exitDx=0;exitDy=0;" edge="1" parent="1" source="7KUsN6LbJQAXhWN3x1fu-3">
          <mxGeometry width="50" height="50" relative="1" as="geometry">
            <mxPoint x="180" y="355" as="sourcePoint" />
            <mxPoint x="330" y="240" as="targetPoint" />
            <Array as="points">
              <mxPoint x="240" y="240" />
            </Array>
          </mxGeometry>
        </mxCell>
        <mxCell id="7KUsN6LbJQAXhWN3x1fu-12" value="Output" style="shape=document;whiteSpace=wrap;html=1;boundedLbl=1;" vertex="1" parent="1">
          <mxGeometry x="520" y="400" width="120" height="80" as="geometry" />
        </mxCell>
        <mxCell id="7KUsN6LbJQAXhWN3x1fu-13" value="Finish" style="ellipse;whiteSpace=wrap;html=1;" vertex="1" parent="1">
          <mxGeometry x="680" y="400" width="120" height="80" as="geometry" />
        </mxCell>
      </root>
    </mxGraphModel>
  </diagram>
</mxfile>
